<svg xmlns="http://www.w3.org/2000/svg" version="1.1" xmlns:xlink="http://www.w3.org/1999/xlink" width="512" height="512" x="0" y="0" viewBox="0 0 256 256" style="enable-background:new 0 0 512 512" xml:space="preserve" class=""><g><g fill="#ebe7f2"><path d="M27.182 167.972a2.5 2.5 0 0 1-2.1-3.861l42.642-65.747a2.5 2.5 0 0 1 4.195 2.721l-42.637 65.747a2.5 2.5 0 0 1-2.1 1.14zM207.783 206.229h-79.765a2.5 2.5 0 0 1 0-5h79.765a2.5 2.5 0 0 1 0 5zM184.328 103.525a2.5 2.5 0 0 1-2.193-1.3l-36.62-66.573a2.5 2.5 0 0 1 4.381-2.41l36.62 66.573a2.5 2.5 0 0 1-2.188 3.706z" fill="#ebe7f2" opacity="1" data-original="#ebe7f2"></path></g><path fill="#846f75" d="M118.367 173.253H56.4l19.3-30.516 13.346 7.709a2.5 2.5 0 0 0 3.554-3.136L72.157 98.829a2.533 2.533 0 0 0-2.7-1.613l-52.28 6.544a2.5 2.5 0 0 0-.939 4.646l12.838 7.41-7.145 11.3a31.7 31.7 0 0 0-.975 32.232l26.823 48.709 1.039 1.885c5.865 10.655 16.718 16.405 23.953 16.405h45.6a2.5 2.5 0 0 0 2.5-2.5v-48.09a2.5 2.5 0 0 0-2.504-2.504zm-93.032-16.322a26.705 26.705 0 0 1 .822-27.148l8.537-13.494a2.5 2.5 0 0 0-.863-3.5l-8.647-4.989 43.056-5.389 16.86 39.982-8.98-5.187a2.5 2.5 0 0 0-3.363.829l-23.989 37.929a31.674 31.674 0 0 0-4.8 14.8zm90.532 64.412H72.772c-5.883 0-14.813-5.168-19.574-13.818l-1.037-1.881A26.7 26.7 0 0 1 53 178.632l.252-.4 62.618.019zM234.1 127.107l-20.19-31.836a2.5 2.5 0 0 0-3.362-.827l-42.291 24.419a2.5 2.5 0 0 0-.862 3.5l32.237 50.886h-37.276v-11.56a2.5 2.5 0 0 0-4.493-1.509l-31.838 42.04a2.5 2.5 0 0 0 0 3.019l31.838 42.04a2.5 2.5 0 0 0 4.493-1.509v-19.426h17.1a31.7 31.7 0 0 0 27.763-16.4l27.864-50.6a31.71 31.71 0 0 0-.983-32.237zm-31.266 80.42a26.693 26.693 0 0 1-23.383 13.817h-19.6a2.5 2.5 0 0 0-2.5 2.5v14.484l-26.2-34.6 26.2-34.6v6.621a2.5 2.5 0 0 0 2.5 2.5h46.111a31.662 31.662 0 0 0 15.116-3.854zm27.866-50.595-1.409 2.563a26.709 26.709 0 0 1-23.327 13.757h-.414l-32.538-51.361 37.959-21.917 18.907 29.808a26.7 26.7 0 0 1 .822 27.15zM53.262 82.547l42.292 24.417a2.5 2.5 0 0 0 3.363-.83l29.1-46.095L143.7 84.828l-12.954 7.479a2.5 2.5 0 0 0 .939 4.645l52.328 6.553a2.5 2.5 0 0 0 2.616-1.505l20.489-48.6a2.5 2.5 0 0 0-3.554-3.136l-13.238 7.643-7.094-11.216a31.539 31.539 0 0 0-26.786-14.751s-57.21 0-57.387.01h-.022A31.579 31.579 0 0 0 72.805 46.7L52.4 79.048a2.5 2.5 0 0 0 .864 3.5zm103.184-45.6a26.562 26.562 0 0 1 22.56 12.424l8.378 13.245a2.5 2.5 0 0 0 3.363.828l8.872-5.122-16.862 39.987-43.065-5.393 8.765-5.06a2.5 2.5 0 0 0 .862-3.5L125.5 46.7a31.726 31.726 0 0 0-9.68-9.753zM77.032 49.368a25.91 25.91 0 0 1 44.238 0l3.791 5.993-29.088 46.072-37.959-21.916z" opacity="1" data-original="#846f75"></path><path fill="#ed9abc" d="M140.8 139.331a12.548 12.548 0 0 0-4.087-4.452 34.269 34.269 0 0 0-8.045-3.622c-3.274-1.111-5.583-2.276-6.864-3.464a5.682 5.682 0 0 1-1.663-4.426A6.171 6.171 0 0 1 122 118.6a7.809 7.809 0 0 1 5.52-1.793 6.816 6.816 0 0 1 5.44 2.217 8.615 8.615 0 0 1 1.964 4.949 3.506 3.506 0 0 0 3.411 3.087 3.429 3.429 0 0 0 3.418-3.722 14.868 14.868 0 0 0-3.185-8.4 12.683 12.683 0 0 0-7.789-4.325v-3.09a3.169 3.169 0 1 0-6.338 0v3.077a13.531 13.531 0 0 0-7.684 3.766 12.438 12.438 0 0 0-3.469 9.08 12.273 12.273 0 0 0 3.17 8.688c2.032 2.18 5.356 3.973 10.147 5.478 3.4 1.177 5.766 2.4 7.023 3.631a5.657 5.657 0 0 1 1.666 4.269 5.8 5.8 0 0 1-2.1 4.686 8.812 8.812 0 0 1-5.878 1.888 8.947 8.947 0 0 1-6.473-2.189 7.437 7.437 0 0 1-2.155-4.73 3.527 3.527 0 0 0-3.421-3.064 3.437 3.437 0 0 0-3.423 3.782 13.637 13.637 0 0 0 3.649 8.307 14.654 14.654 0 0 0 8.863 4.139v2.38a3.154 3.154 0 1 0 6.308 0v-2.435a14.07 14.07 0 0 0 7.947-3.723 12.234 12.234 0 0 0 3.565-9.1 12.913 12.913 0 0 0-1.376-6.122z" opacity="1" data-original="#ed9abc"></path></g></svg>